<?xml version="1.0" encoding="UTF-8" standalone="no"?>
<!DOCTYPE svg PUBLIC "-//W3C//DTD SVG 1.1//EN" "http://www.w3.org/Graphics/SVG/1.1/DTD/svg11.dtd">
<svg width="100%" height="100%" viewBox="0 0 950 20" version="1.1" xmlns="http://www.w3.org/2000/svg" xmlns:xlink="http://www.w3.org/1999/xlink" xml:space="preserve" xmlns:serif="http://www.serif.com/" style="fill-rule:evenodd;clip-rule:evenodd;stroke-linejoin:round;stroke-miterlimit:2;">
    <g transform="matrix(0.996956,0,0,0.9,0.446048,1)">
        <path d="M475,1.61C474.892,4.259 473.721,10.898 472.896,15.895C472.718,16.971 472.561,17.847 472.443,18.39C472.289,19.097 471.711,19.998 470.988,20C392.917,20.268 4.017,20 4.017,20C3.214,20 2.562,19.279 2.562,18.39L2.562,1.61C2.562,0.721 3.214,0 4.017,0C4.017,0 395.048,-0.268 473.545,0C474.268,0.002 475.03,0.887 475,1.61Z" style="fill:rgb(23,65,67);"/>
    </g>
    <g transform="matrix(0.991579,0,0,0.9,5,1)">
        <g transform="matrix(0.930299,0,0,1,32.935865,0)">
            <path d="M950,1.609L950,18.391C950,19.279 949.346,20 948.54,20C948.54,20 553.327,20.268 473.992,20C473.268,19.998 472.491,19.114 472.531,18.391C472.699,15.326 474.345,4.674 475,1.609C475.151,0.901 475.736,0.002 476.46,0C555.383,-0.268 948.54,0 948.54,0C949.346,0 950,0.721 950,1.609Z" style="fill:rgb(213,114,74);"/>
        </g>
        <g transform="matrix(0.836414,0,0,0.908719,78.761048,0.606195)">
            <path d="M950,1.609L950,18.391C950,19.279 949.346,20 948.54,20C948.54,20 553.327,20.268 473.992,20C473.268,19.998 472.491,19.114 472.531,18.391C472.699,15.326 474.345,4.674 475,1.609C475.151,0.901 475.736,0.002 476.46,0C555.383,-0.268 948.54,0 948.54,0C949.346,0 950,0.721 950,1.609Z" style="fill:rgb(204,204,204);"/>
        </g>
    </g>
</svg>
