<?xml version="1.0" encoding="UTF-8" standalone="no"?>
<!DOCTYPE svg PUBLIC "-//W3C//DTD SVG 1.1//EN" "http://www.w3.org/Graphics/SVG/1.1/DTD/svg11.dtd">
<svg width="100%" height="100%" viewBox="0 0 950 20" version="1.1" xmlns="http://www.w3.org/2000/svg" xmlns:xlink="http://www.w3.org/1999/xlink" xml:space="preserve" xmlns:serif="http://www.serif.com/" style="fill-rule:evenodd;clip-rule:evenodd;stroke-linejoin:round;stroke-miterlimit:2;">
    <g transform="matrix(0.996956,0,0,0.9,0.446048,1)">
        <path d="M475,1.61L472.443,18.39C472.443,19.279 471.791,20 470.988,20L4.017,20C3.214,20 2.562,19.279 2.562,18.39L2.562,1.61C2.562,0.721 3.214,0 4.017,0L473.545,0C474.348,0 475,0.721 475,1.61Z" style="fill:rgb(23,65,67);"/>
    </g>
    <g transform="matrix(0.991579,0,0,0.9,5,1)">
        <path d="M950,1.609L950,18.391C950,19.279 949.346,20 948.54,20L473.992,20C473.185,20 472.531,19.279 472.531,18.391L475,1.609C475,0.721 475.654,0 476.46,0L948.54,0C949.346,0 950,0.721 950,1.609Z" style="fill:rgb(66,122,118);"/>
    </g>
</svg>
